<svg width="20" height="20" viewBox="0 0 20 20" fill="none" xmlns="http://www.w3.org/2000/svg">
<g clip-path="url(#clip0_80_7)">
<path d="M14.3359 7.32422C14.1797 7.16797 13.9844 7.08984 13.75 7.08984C13.5156 7.08984 13.3203 7.16797 13.1641 7.32422L9.58984 10.8984L8.08594 9.41406C7.92969 9.24479 7.73438 9.16016 7.5 9.16016C7.26562 9.16016 7.07031 9.24479 6.91406 9.41406C6.74479 9.57031 6.66016 9.76562 6.66016 10C6.66016 10.2344 6.74479 10.4297 6.91406 10.5859L9.00391 12.6758C9.08203 12.7539 9.16992 12.8125 9.26758 12.8516C9.36523 12.8906 9.47266 12.9102 9.58984 12.9102C9.69401 12.9102 9.79818 12.8906 9.90234 12.8516C10.0065 12.8125 10.0977 12.7539 10.1758 12.6758L14.3359 8.51562C14.5052 8.34635 14.5898 8.14779 14.5898 7.91992C14.5898 7.69206 14.5052 7.49349 14.3359 7.32422ZM19.1602 9.16016C18.9388 9.16016 18.7467 9.24154 18.584 9.4043C18.4212 9.56706 18.3398 9.76562 18.3398 10C18.3398 11.1458 18.1185 12.2266 17.6758 13.2422C17.2461 14.2578 16.6536 15.1432 15.8984 15.8984C15.1432 16.6536 14.2578 17.2461 13.2422 17.6758C12.2266 18.1185 11.1458 18.3398 10 18.3398C8.85417 18.3398 7.77344 18.1185 6.75781 17.6758C5.74219 17.2461 4.85677 16.6536 4.10156 15.8984C3.34635 15.1432 2.75391 14.2578 2.32422 13.2422C1.88151 12.2266 1.66016 11.1458 1.66016 10C1.66016 8.85417 1.88151 7.77344 2.32422 6.75781C2.75391 5.74219 3.34635 4.85677 4.10156 4.10156C4.85677 3.34635 5.74219 2.75391 6.75781 2.32422C7.77344 1.88151 8.85417 1.66016 10 1.66016C10.5599 1.66016 11.1068 1.71875 11.6406 1.83594C12.1875 1.9401 12.7116 2.09635 13.2129 2.30469C13.7142 2.51302 14.1927 2.76693 14.6484 3.06641C15.1042 3.37891 15.5273 3.73047 15.918 4.12109C16.0742 4.29036 16.2695 4.375 16.5039 4.375C16.7383 4.375 16.9336 4.29688 17.0898 4.14062C17.2591 3.97135 17.3438 3.77279 17.3438 3.54492C17.3438 3.31706 17.2591 3.11849 17.0898 2.94922C16.6211 2.48047 16.1133 2.05729 15.5664 1.67969C15.0195 1.3151 14.4466 1.00912 13.8477 0.761719C13.2487 0.514322 12.6237 0.325521 11.9727 0.195312C11.3346 0.0651035 10.6771 0 10 0C8.61979 0 7.32422 0.260416 6.11328 0.78125C4.90234 1.3151 3.8444 2.03451 2.93945 2.93945C2.03451 3.8444 1.3151 4.90234 0.78125 6.11328C0.260417 7.32422 0 8.61979 0 10C0 11.3802 0.260417 12.6758 0.78125 13.8867C1.3151 15.0977 2.03451 16.1556 2.93945 17.0605C3.8444 17.9655 4.90234 18.6849 6.11328 19.2188C7.32422 19.7396 8.61979 20 10 20C11.3802 20 12.6758 19.7396 13.8867 19.2188C15.0977 18.6849 16.1556 17.9655 17.0605 17.0605C17.9655 16.1556 18.6849 15.0977 19.2188 13.8867C19.7396 12.6758 20 11.3802 20 10C20 9.76562 19.9186 9.56706 19.7559 9.4043C19.5931 9.24154 19.3945 9.16016 19.1602 9.16016Z" fill="#339F9F"/>
</g>
<defs>
<clipPath id="clip0_80_7">
<rect width="20" height="20" fill="white" transform="matrix(1 0 0 -1 0 20)"/>
</clipPath>
</defs>
</svg>
